# xmcd
# Track frame offsets:
# 150
# 24866
# 36486
# 52227
# 72525
# 86219
# 101236
# 115120
# 131434
# 145911
# 164503
# 182597
# 197918
# 215103
# 227988
# 240828
# 260896
# 276348
# 278910
# 281598
#
# Disc length: 3786 seconds
# Revision: 2
# Processed by: cddbd v1.5.1PL0 Copyright (c) Steve Scherf et al.
# Submitted via: VisiTrax 2.9.10.228 - For more info visit www.synapsa.com
#
DISCID=440ec814
DTITLE=Various Artist - CDX 348 July 2004 Disc #2
DYEAR=2004
DGENRE=Country
TTITLE0=SheDaisy - Come Home Soon
TTITLE1=Moe and Joe Bandy Stampley - Drunk Front
TTITLE2=Rascal Flatts - Feels Like Today
TTITLE3=John Michael Montgomery - Goes Good With Beer
TTITLE4=Trick Pony - The Bride
TTITLE5=Wayne Warner - Turbo Twang
TTITLE6=Janie Fricke - You Don't Know Love
TTITLE7=Glenn Cummings - Big
TTITLE8=Melonie Cannon - I Feel You Everywhere
TTITLE9=Craig Dillingham - Just One More
TTITLE10=Blue Dogs - Make Your Mama Proud
TTITLE11=Marshall Madison - Not Pretty But Real
TTITLE12=Blake Stamper - Way Back to Texas (The)
TTITLE13=Tod Barrett - To Whom It May Concern
TTITLE14=Brooks Atwood - Treat Me Like A Dog
TTITLE15=Eleven Hundred Springs - Why You Been Gone So Long
TTITLE16=Leah Durelle - That Summer Night
TTITLE17=Brad Paisley - Spot 1
TTITLE18=Brad Paisley - Spot 2
TTITLE19=Brad Paisley - Spot 3
EXTD=
EXTT0=
EXTT1=
EXTT2=
EXTT3=
EXTT4=
EXTT5=
EXTT6=
EXTT7=
EXTT8=
EXTT9=
EXTT10=
EXTT11=
EXTT12=
EXTT13=
EXTT14=
EXTT15=
EXTT16=
EXTT17=
EXTT18=
EXTT19=
PLAYORDER=
